<?xml version="1.0" encoding="UTF-8"?>
<svg width="193px" height="61px" viewBox="0 0 193 61" version="1.1" xmlns="http://www.w3.org/2000/svg" xmlns:xlink="http://www.w3.org/1999/xlink">
    <title>Group</title>
    <g id="v3" stroke="none" stroke-width="1" fill="none" fill-rule="evenodd">
        <g id="Company" transform="translate(-117, -43)">
            <g id="Group" transform="translate(118, 44)">
                <g transform="translate(127.2991, 0.0463)" stroke="#00AEAD" stroke-width="1.5">
                    <polygon id="Stroke-1" points="26.5251921 48.2472157 31.8038669 48.2472157 31.8038669 26.8005171 26.5251921 26.8005171"></polygon>
                    <polygon id="Stroke-24" points="42.4746342 42.9125581 42.4746342 0 37.1959593 0 37.1959593 42.9125581 37.1959593 48.2471792 42.4746342 48.2471792 63.7009273 48.2471792 63.7009273 42.9125581"></polygon>
                    <polygon id="Stroke-25" points="5.27867484 21.446808 26.5251921 21.446808 26.5251921 26.8004077 5.27867484 26.8004077 5.27867484 48.2471062 0 48.2471062 0 0.00010949176 26.5251921 0.00010949176 26.5251921 21.446808 31.8038669 21.446808 31.8038669 5.35279668 5.27867484 5.35279668"></polygon>
                </g>
                <polygon id="Stroke-2" stroke="#00474A" stroke-width="1.5" points="84.869058 48.2935307 90.1477329 48.2935307 90.1477329 0.0463515119 84.869058 0.0463515119"></polygon>
                <polygon id="Stroke-4" stroke="#00474A" stroke-width="1.5" points="74.2152827 48.2935307 79.4939575 48.2935307 79.4939575 16.1604364 74.2152827 16.1604364"></polygon>
                <polygon id="Stroke-5" stroke="#00474A" stroke-width="1.5" points="0 48.2935307 5.27867484 48.2935307 5.27867484 37.5564037 0 37.5564037"></polygon>
                <polygon id="Stroke-7" stroke="#00474A" stroke-width="1.5" points="26.4959213 21.4763526 26.4959213 32.2218739 10.5573316 32.2218739 10.5573316 21.4763526 5.27865678 21.4763526 5.27865678 32.2218739 5.27865678 37.556495 10.5573316 37.556495 26.4959213 37.556495 31.7745961 37.556495 31.7745961 32.2218739 31.7745961 21.4763526"></polygon>
                <polygon id="Stroke-8" stroke="#00474A" stroke-width="1.5" points="31.8258968 48.2935307 37.1045716 48.2935307 37.1045716 37.5564037 31.8258968 37.5564037"></polygon>
                <polygon id="Stroke-9" stroke="#00474A" stroke-width="1.5" points="21.2172645 21.4762613 26.4959393 21.4762613 26.4959393 10.7393168 21.2172645 10.7393168"></polygon>
                <polygon id="Stroke-10" stroke="#00474A" stroke-width="1.5" points="10.5573497 21.4751664 15.8360245 21.4751664 15.8360245 10.7382219 10.5573497 10.7382219"></polygon>
                <polygon id="Stroke-11" stroke="#00474A" stroke-width="1.5" points="15.8873071 10.7369445 21.2172645 10.7369445 21.2172645 0 15.8873071 0"></polygon>
                <polygon id="Stroke-13" stroke="#00474A" stroke-width="1.5" points="42.434529 42.9589097 47.7132038 42.9589097 47.7132038 21.4764438 42.434529 21.4764438"></polygon>
                <polygon id="Stroke-14" stroke="#00474A" stroke-width="1.5" points="42.399498 59 63.656669 59 63.656669 53.665379 42.399498 53.665379"></polygon>
                <polygon id="Stroke-16" stroke="#00474A" stroke-width="1.5" points="47.7132038 42.9589097 63.6734622 42.9589097 63.6734622 21.4764438 47.7132038 21.4764438"></polygon>
                <polygon id="Stroke-17" stroke="#00474A" stroke-width="1.5" points="63.6734622 16.1386292 47.7132038 16.1386292 47.7132038 21.4763526 63.6734622 21.4763526 63.6734622 42.918489 47.7132038 42.918489 47.7132038 48.2562123 63.6734622 48.2562123 63.6734622 53.6280605 68.952137 53.6280605 68.952137 48.2562123 68.952137 46.3293398 68.952137 42.918489 68.952137 21.4763526 68.952137 16.1386292"></polygon>
                <polygon id="Stroke-18" stroke="#00474A" stroke-width="1.5" points="116.739917 42.9589097 122.018592 42.9589097 122.018592 37.6242886 116.739917 37.6242886"></polygon>
                <polygon id="Stroke-19" stroke="#00474A" stroke-width="1.5" points="100.767199 48.2935307 116.739917 48.2935307 116.739917 42.9589097 100.767199 42.9589097"></polygon>
                <polygon id="Stroke-20" stroke="#00474A" stroke-width="1.5" points="100.767199 21.4948749 116.739917 21.4948749 116.739917 16.1602539 100.767199 16.1602539"></polygon>
                <polygon id="Stroke-21" stroke="#00474A" stroke-width="1.5" points="100.767181 42.9588732 95.4885066 42.9588732 95.4885066 21.4950209 100.767181 21.4950209 100.767181 26.8922347 116.739899 26.8922347 116.739899 21.4988531 122.018574 21.4988531 122.018574 26.8922347 122.018574 32.2268558 116.739899 32.2268558 100.767181 32.2268558"></polygon>
                <polygon id="Stroke-22" stroke="#00474A" stroke-width="1.5" points="74.2152827 5.42531672 79.4939575 5.42531672 79.4939575 0.0390520612 74.2152827 0.0390520612"></polygon>
            </g>
        </g>
    </g>
</svg>